<svg width="40" height="40" viewBox="0 0 40 40" fill="none" xmlns="http://www.w3.org/2000/svg">
<path d="M34.36 10.0368L30.4717 4.70344C29.8583 3.8701 28.8817 3.33344 27.7783 3.33344H12.2233C11.12 3.33344 10.1433 3.86844 9.53666 4.69344L9.53 4.70344L5.64166 10.0368C5.24166 10.5801 5.00166 11.2618 5.00166 12.0001V30.6668C5.00166 30.6751 5.00166 30.6868 5.00166 30.6968C5.00166 33.9784 7.65 36.6418 10.925 36.6668H29.075C32.3533 36.6418 35.0017 33.9784 35.0017 30.6968C35.0017 30.6868 35.0017 30.6751 35.0017 30.6651V12.0001C35.0017 11.2618 34.7617 10.5801 34.355 10.0268L34.3617 10.0368H34.36ZM12.2217 6.66677H27.7767L30.2067 10.0001H9.79L12.2217 6.66677ZM31.6667 30.6668C31.6667 30.6768 31.6667 30.6901 31.6667 30.7034C31.6667 32.1434 30.51 33.3118 29.0767 33.3334H10.9267C9.49 33.3118 8.33333 32.1434 8.33333 30.7034C8.33333 30.6901 8.33333 30.6784 8.33333 30.6651V13.3334H31.6667V30.6668ZM12.5 17.0834C12.5 16.1634 13.2467 15.4168 14.1667 15.4168C15.0867 15.4168 15.8333 16.1634 15.8333 17.0834C15.8333 19.3851 17.6983 21.2501 20 21.2501C22.3017 21.2501 24.1667 19.3851 24.1667 17.0834C24.1667 16.1634 24.9133 15.4168 25.8333 15.4168C26.7533 15.4168 27.5 16.1634 27.5 17.0834C27.5 21.2251 24.1417 24.5834 20 24.5834C15.8583 24.5834 12.5 21.2251 12.5 17.0834Z" fill="#BD1F17"/>
</svg>
