<svg width="40" height="40" viewBox="0 0 40 40" fill="none" xmlns="http://www.w3.org/2000/svg">
<path d="M11.0033 29.5034C11.1583 29.7368 11.3167 29.9751 11.4783 30.2234C11.8333 30.8618 12.505 31.2851 13.275 31.2851C13.4083 31.2851 13.5383 31.2718 13.665 31.2484L13.6517 31.2501C14.5917 31.1301 15.545 31.0118 16.4867 30.9184C16.7217 31.0634 16.9517 31.2134 17.1817 31.3634L17.34 31.4668C16.8922 32.8445 16.4489 34.2201 16.01 35.5934L13.6783 33.7284L13.5233 33.6501C13.1917 33.4784 12.7983 33.3784 12.3833 33.3784C12.285 33.3784 12.1883 33.3834 12.0933 33.3951L12.105 33.3934L9.70999 33.5301L11.0033 29.5034ZM10.315 26.1968L7.38999 35.3068C7.46555 35.3112 7.54055 35.3134 7.61499 35.3134C7.68944 35.3134 7.76444 35.3112 7.83999 35.3068L12.2533 35.0568C12.2917 35.0501 12.335 35.0468 12.38 35.0468C12.5233 35.0468 12.6567 35.0818 12.7767 35.1418L12.7717 35.1401L16.7667 38.3318H17V37.9634C17.735 35.6568 18.4717 33.3668 19.2233 31.0584C19.3067 30.8084 19.2567 30.6901 19.0233 30.5568C18.3883 30.1718 17.7867 29.7534 17.1517 29.3701C16.9967 29.2851 16.81 29.2351 16.6133 29.2351L16.55 29.2368C15.4967 29.3368 14.4267 29.4701 13.3733 29.6051C13.3433 29.6134 13.31 29.6184 13.2733 29.6184C13.1167 29.6184 12.9817 29.5251 12.9217 29.3918L12.92 29.3901C12.3183 28.4534 11.75 27.6684 11.2483 26.7818C11.0533 26.4518 10.71 26.2284 10.315 26.1968ZM29.0617 29.4851L30.3583 33.5318L27.9433 33.4018C27.81 33.3734 27.6567 33.3568 27.5 33.3568C27.2217 33.3568 26.955 33.4084 26.71 33.5034L26.725 33.4984L26.4733 33.5934L24.055 35.5601C24.0117 35.419 23.9672 35.2773 23.9217 35.1351L23.6383 34.2451C23.345 33.3218 23.05 32.3934 22.75 31.4701C23.0333 31.2918 23.3233 31.1034 23.625 30.9034L26.4217 31.2518C26.5333 31.2734 26.6633 31.2868 26.795 31.2868C27.5733 31.2868 28.25 30.8534 28.5967 30.2151L28.6017 30.2051C28.7517 29.9618 28.9033 29.7234 29.0583 29.4851H29.0617ZM29.7567 26.1968C29.3583 26.2334 29.02 26.4568 28.8233 26.7768L28.82 26.7818C28.235 27.7184 27.6833 28.5201 27.1483 29.3901C27.0867 29.5268 26.9533 29.6201 26.7967 29.6201C26.7617 29.6201 26.7267 29.6151 26.695 29.6068H26.6983L23.605 29.2218C23.56 29.2134 23.5067 29.2101 23.4533 29.2101C23.2333 29.2101 23.03 29.2834 22.8667 29.4068L22.8683 29.4051C22.2667 29.8068 21.665 30.1901 21.0467 30.5584C20.9967 30.5768 20.955 30.6051 20.92 30.6401C20.8567 30.7034 20.8183 30.7918 20.8183 30.8884C20.8183 30.9518 20.835 31.0118 20.865 31.0618L20.8633 31.0601C21.365 32.5818 21.85 34.1201 22.335 35.6401C22.62 36.5434 22.8867 37.4451 23.1533 38.3318H23.2867L27.3167 35.0568C27.3717 35.0351 27.435 35.0234 27.5 35.0234C27.565 35.0234 27.63 35.0351 27.6867 35.0584L27.6833 35.0568L32.6817 35.3234L29.7567 26.1968ZM17.0517 26.9818L14.41 27.3001C14.3783 27.3101 14.34 27.3151 14.3017 27.3151C14.1383 27.3151 13.9983 27.2134 13.9433 27.0684L13.9417 27.0651C13.5067 26.3468 13.0717 25.6268 12.6217 24.9251C12.4883 24.7384 12.3067 24.5934 12.095 24.5101L12.0867 24.5068C11.3017 24.2051 10.415 23.9384 9.67999 23.6718C9.62499 23.6634 9.57499 23.6434 9.52999 23.6168L9.53166 23.6184C9.42333 23.5501 9.35166 23.4301 9.35166 23.2934C9.35166 23.2618 9.35499 23.2318 9.36166 23.2034V23.2068C9.30999 22.2068 9.20999 21.2818 9.05833 20.3718L9.07833 20.5151C9.03833 20.3784 8.96999 20.2601 8.87833 20.1634C8.25999 19.5284 7.62499 18.9101 6.98999 18.2918C6.89166 18.2251 6.82666 18.1134 6.82666 17.9868C6.82666 17.9218 6.84333 17.8584 6.87499 17.8051L6.87333 17.8068C7.17333 16.9868 7.47499 16.1351 7.75999 15.3501C7.78333 15.2668 7.79666 15.1718 7.79666 15.0751C7.79666 14.9784 7.78333 14.8818 7.75833 14.7918L7.75999 14.7984C7.47499 13.9801 7.17499 13.1268 6.87333 12.3401C6.84666 12.2868 6.82999 12.2251 6.82999 12.1584C6.82999 12.0284 6.89166 11.9118 6.98833 11.8384L8.81166 10.1151C8.97833 9.9601 9.08666 9.74177 9.09499 9.49843C9.09499 8.6451 9.27833 7.8251 9.36333 6.92177C9.36333 6.9201 9.36333 6.91843 9.36333 6.91677C9.36333 6.7501 9.48499 6.61177 9.64499 6.58677C10.48 6.30177 11.3183 6.0351 12.1217 5.73343C12.3133 5.6451 12.4717 5.51343 12.5883 5.35177L12.59 5.34843C13.0583 4.6301 13.51 3.9101 13.945 3.1751C14.0133 3.02177 14.1667 2.91677 14.3417 2.91677C14.3733 2.91677 14.4033 2.9201 14.4317 2.92677H14.4283C15.265 3.04343 16.1 3.1601 16.9533 3.22677C17.0083 3.23843 17.0717 3.24343 17.1383 3.24343C17.2967 3.24343 17.445 3.20677 17.5783 3.1401L17.5733 3.14343C18.325 2.70843 19.045 2.2401 19.7633 1.7551C19.825 1.7001 19.9067 1.6651 19.9967 1.6651C20.0867 1.6651 20.1683 1.69843 20.2317 1.7551C20.9833 2.2401 21.72 2.7251 22.4717 3.17677C22.5983 3.25343 22.7517 3.29843 22.915 3.29843C22.9467 3.29843 22.98 3.29677 23.01 3.29343H23.0067C23.8767 3.2101 24.6783 3.09343 25.615 2.9751C25.6383 2.9701 25.6667 2.96677 25.6933 2.96677C25.845 2.96677 25.975 3.05843 26.0317 3.1901L26.0333 3.19177C26.485 3.94343 26.9367 4.69677 27.42 5.43177C27.5233 5.5801 27.665 5.6951 27.8317 5.76343L27.8383 5.7651C28.6583 6.06677 29.51 6.3501 30.3133 6.61843C30.4933 6.64343 30.6317 6.79677 30.6317 6.98343C30.6317 6.9901 30.6317 6.99677 30.6317 7.0051C30.7205 7.90732 30.8205 8.80843 30.9317 9.71177C30.965 9.86343 31.0417 9.9951 31.1483 10.0968C31.7667 10.7318 32.4017 11.3501 33.0367 11.9684C33.1233 12.0301 33.1783 12.1284 33.1783 12.2418C33.1783 12.3018 33.1633 12.3568 33.135 12.4051L33.1367 12.4034C32.8367 13.2234 32.535 14.0751 32.25 14.8618C32.2217 14.9518 32.2067 15.0551 32.2067 15.1634C32.2067 15.2718 32.2233 15.3751 32.2517 15.4718L32.25 15.4651C32.5167 16.2834 32.8183 17.1368 33.12 17.9051C33.1517 17.9584 33.1717 18.0234 33.1717 18.0918C33.1717 18.2134 33.1117 18.3218 33.0217 18.3884C32.3867 18.9901 31.7833 19.5918 31.1817 20.2101C31.045 20.3584 30.95 20.5468 30.915 20.7551L30.9133 20.7618C30.7967 21.6318 30.7133 22.4334 30.63 23.3701C30.6233 23.5501 30.4883 23.6968 30.315 23.7218C29.495 24.0068 28.6417 24.2734 27.8383 24.5734C27.6683 24.6484 27.5283 24.7634 27.4217 24.9051L27.42 24.9084C26.9517 25.6434 26.4833 26.3968 26.05 27.1484C25.9817 27.2784 25.8483 27.3651 25.695 27.3651C25.655 27.3651 25.6167 27.3584 25.58 27.3484H25.5833C24.7367 27.2262 23.8839 27.1262 23.025 27.0484C23.0083 27.0468 22.99 27.0468 22.9717 27.0468C22.77 27.0468 22.58 27.1034 22.4183 27.2001L22.4233 27.1968C21.6883 27.6318 20.9683 28.0984 20.25 28.5834C20.185 28.6368 20.1 28.6701 20.0083 28.6701C19.9167 28.6701 19.8317 28.6368 19.765 28.5834L17.5583 27.1651C17.4283 27.1034 17.2683 27.0418 17.1033 26.9901L17.0733 26.9818H17.0517ZM10.7 15.0968C10.7 15.1018 10.7 15.1068 10.7 15.1134C10.7 20.2468 14.8617 24.4084 19.995 24.4084C25.1283 24.4084 29.29 20.2468 29.29 15.1134C29.29 9.9801 25.1283 5.81843 19.995 5.81843C16.1533 5.81843 12.855 8.1501 11.44 11.4751L11.4167 11.5351C10.9667 12.5868 10.7033 13.8101 10.7017 15.0934V15.0951L10.7 15.0968ZM20.0117 7.9751V9.64177C23.03 9.64677 25.475 12.0951 25.475 15.1134C25.475 18.1351 23.025 20.5851 20.0033 20.5851C20 20.5851 19.9967 20.5851 19.995 20.5851C16.9767 20.5801 14.5317 18.1318 14.5317 15.1134C14.5317 12.1068 16.9583 9.6651 19.96 9.64177H19.9617L20.0117 7.9751ZM20.0117 7.9751H19.945C16.0317 7.99343 12.8667 11.1701 12.8667 15.0868C12.8667 19.0134 16.05 22.1984 19.9783 22.1984C23.9067 22.1984 27.09 19.0151 27.09 15.0868C27.09 11.1718 23.925 7.9951 20.0133 7.9751H20.0117Z" fill="#BD1F17"/>
</svg>
