<svg width="40" height="40" viewBox="0 0 40 40" fill="none" xmlns="http://www.w3.org/2000/svg">
<path d="M34.13 9.46181L22.4684 3.13015C21.755 2.73681 20.905 2.50348 20 2.50348C19.0984 2.50348 18.25 2.73348 17.5117 3.14015L17.5384 3.12681L5.86836 9.46515C4.36002 10.2901 3.35169 11.8585 3.33502 13.6635V26.3351C3.35169 28.1435 4.36336 29.7135 5.84669 30.5251L5.87169 30.5385L17.5334 36.8685C18.2217 37.2468 19.0417 37.4735 19.9134 37.4835H19.9167C19.9467 37.4851 19.9717 37.5001 20.0017 37.5001C20.0317 37.5001 20.0534 37.4851 20.0817 37.4835C20.955 37.4751 21.775 37.2485 22.49 36.8568L22.4634 36.8701L34.1367 30.5318C35.6434 29.7068 36.65 28.1401 36.6684 26.3368V13.6618C36.65 11.8535 35.64 10.2835 34.1567 9.47348L34.1317 9.46015L34.13 9.46181ZM19.135 6.05348C19.385 5.91515 19.6834 5.83515 20 5.83515C20.32 5.83515 20.62 5.91681 20.88 6.06181L20.87 6.05681L31.15 11.6385L27.1317 13.9635L16.1884 7.65181L19.135 6.05348ZM20 18.0901L8.84836 11.6385L12.7534 9.51848L23.8034 15.8901L20 18.0901ZM7.46836 27.6135C6.99836 27.3668 6.68169 26.8885 6.66669 26.3351V14.2285L18.3334 20.9785V33.5118L7.46836 27.6135ZM32.5384 27.6085L21.6684 33.5101V20.9768L33.335 14.2268V26.3301C33.3217 26.8835 33.0067 27.3618 32.5467 27.6035L32.5384 27.6068V27.6085Z" fill="#BD1F17"/>
</svg>
